Coordinates
version=1
nRows=11
nColumns=40
inDegrees=yes

Units are S.I. units (second, meters, Newtons, ...)
Angles are in degrees.

endheader
time	pelvis_tilt	pelvis_list	pelvis_rotation	pelvis_tx	pelvis_ty	pelvis_tz	hip_flexion_r	hip_adduction_r	hip_rotation_r	knee_angle_r	knee_angle_r_beta	ankle_angle_r	subtalar_angle_r	mtp_angle_r	hip_flexion_l	hip_adduction_l	hip_rotation_l	knee_angle_l	knee_angle_l_beta	ankle_angle_l	subtalar_angle_l	mtp_angle_l	lumbar_extension	lumbar_bending	lumbar_rotation	arm_flex_r	arm_add_r	arm_rot_r	elbow_flex_r	pro_sup_r	wrist_flex_r	wrist_dev_r	arm_flex_l	arm_add_l	arm_rot_l	elbow_flex_l	pro_sup_l	wrist_flex_l	wrist_dev_l
     22.10500000	     -6.87608511	     -4.45397566	     -9.31441900	      0.97368424	      0.92858035	      0.53885717	     17.17238423	      3.20211364	     -5.03684784	     15.86411146	     15.86411146	      8.19523881	      7.33903066	     -4.08421503	      5.55124532	    -15.00784412	    -14.50385426	     22.93406944	     22.93406944	     14.86413823	     -9.00148544	      2.59176478	     -7.42310130	      7.41178300	     -0.73699185	    -13.07702889	    -12.69288361	     -4.11211913	     29.69636334	     45.62216358	      0.00000000	      0.00000000	     32.07678287	    -17.71653988	    -16.07703983	     79.33627160	     48.77626198	      0.00000000	      0.00000000
     22.12685714	     -6.78004808	     -4.52635013	     -8.45726884	      0.97329934	      0.92890962	      0.54397249	     16.65806658	      3.45979755	     -5.64586564	     15.74690031	     15.74690031	      8.46515235	      7.00492024	     -4.12624619	      6.78142733	    -15.78064714	    -13.47127391	     25.33559217	     25.33559217	     14.05725830	     -9.65047996	      2.00476091	     -7.53269080	      7.41886997	     -0.74563215	    -11.65308935	    -12.46543879	     -4.01234505	     29.67467593	     45.63398606	      0.00000000	      0.00000000	     30.18836181	    -16.59657536	    -15.54659386	     78.07016212	     48.69656905	      0.00000000	      0.00000000
     22.14871429	     -6.70673470	     -4.56887141	     -7.57213116	      0.97268177	      0.92901939	      0.54873586	     16.27318213	      3.67688249	     -6.21019976	     15.76854779	     15.76854779	      8.75631201	      6.53865226	     -4.19763708	      8.37048211	    -16.47202055	    -12.20700432	     28.17614555	     28.17614555	     12.99868871	    -10.72038210	      1.23440747	     -7.56704564	      7.41567248	     -0.82708657	     -9.94910803	    -12.21819242	     -3.86306390	     29.41848806	     45.65648466	      0.00000000	      0.00000000	     28.20960513	    -15.55326598	    -14.88054312	     76.28481843	     48.59598777	      0.00000000	      0.00000000
     22.17057143	     -6.57008578	     -4.59866224	     -6.70253904	      0.97188213	      0.92903304	      0.55315547	     15.94419543	      3.86198375	     -6.72120175	     15.98405055	     15.98405055	      9.09770972	      5.91354800	     -4.29305703	     10.19167151	    -17.03652991	    -10.74266675	     31.41147505	     31.41147505	     11.69880770	    -12.27820594	      0.43295937	     -7.68082952	      7.36546357	     -0.89231310	     -7.97292867	    -11.99546118	     -3.68242619	     28.97688687	     45.68859610	      0.00000000	      0.00000000	     26.16581214	    -14.55245965	    -14.06581684	     74.00350033	     48.47494439	      0.00000000	      0.00000000
     22.19242857	     -6.25164164	     -4.56341820	     -5.85989845	      0.97100053	      0.92900729	      0.55725778	     15.62186097	      3.95788037	     -6.98645838	     16.55171979	     16.55171979	      9.61152853	      5.00438785	     -4.38025542	     11.98888026	    -17.33101386	     -9.06848749	     34.82360474	     34.82360474	      9.94419085	    -14.52469043	     -0.68360968	     -7.88376825	      7.22446952	     -0.82014810	     -5.25250838	    -11.73112353	     -3.30999530	     26.94224927	     45.80038391	      0.00000000	      0.00000000	     24.61294147	    -13.65130380	    -12.67524160	     70.05642644	     48.27156099	      0.00000000	      0.00000000
     22.21428571	     -5.97171800	     -4.71869247	     -5.01965082	      0.97000130	      0.92859406	      0.56108263	     15.29314759	      4.23963613	     -7.44539994	     17.02676567	     17.02676567	     10.09058022	      4.30741649	     -4.51101819	     14.16441594	    -17.86939064	     -7.58334591	     38.79907063	     38.79907063	      8.74113328	    -15.94707572	     -0.92439427	     -8.20247399	      7.30351738	     -0.79410043	     -3.20665486	    -11.67321564	     -3.30992916	     27.17388611	     45.81623310	      0.00000000	      0.00000000	     22.27124729	    -12.57402282	    -11.93411506	     67.91497856	     48.15925737	      0.00000000	      0.00000000
     22.23614286	     -5.60234900	     -4.68459445	     -4.23147423	      0.96893348	      0.92805245	      0.56461441	     15.16496509	      4.35088433	     -7.42242904	     18.01414048	     18.01414048	     10.78058529	      2.89965133	     -4.37859501	     16.35727200	    -17.96201264	     -5.97655099	     42.89913908	     42.89913908	      8.25936216	    -17.30991729	      1.05665798	     -8.39597773	      7.17250700	     -0.61194048	     -0.31343569	    -11.52092057	     -3.24880971	     25.56122229	     45.94084794	      0.00000000	      0.00000000	     20.91924617	    -11.69157828	    -10.34283493	     62.56079908	     47.92300465	      0.00000000	      0.00000000
     22.25800000	     -5.23610034	     -4.77040431	     -3.44186202	      0.96780474	      0.92701086	      0.56786351	     15.11363482	      4.53480529	     -7.63567703	     19.12540762	     19.12540762	     11.44062026	      1.77158124	     -4.55835699	     18.64689635	    -18.17713446	     -4.60683037	     47.01900420	     47.01900420	      7.62901164	    -18.17951488	      1.91153300	     -8.74124549	      7.15549886	     -0.80011099	      2.11116246	    -11.51573395	     -3.38496407	     26.06843801	     45.96151677	      0.00000000	      0.00000000	     18.45646764	    -10.97570880	     -9.59158175	     59.59307421	     47.79521178	      0.00000000	      0.00000000
     22.27985714	     -4.62201303	     -4.78511949	     -2.71126607	      0.96678055	      0.92613238	      0.57084312	     14.91301387	      4.72254723	     -7.32398658	     20.46570331	     20.46570331	     12.36988330	     -0.06483842	     -4.12805461	     20.71666361	    -18.00570169	     -3.06374122	     51.19196666	     51.19196666	      8.98894090	    -18.53809029	      7.80639653	     -9.19978788	      7.06079111	     -0.39139642	      5.09127975	    -11.55581629	     -3.68713495	     24.93375751	     46.09553692	      0.00000000	      0.00000000	     17.59977194	    -10.02041057	     -7.91410064	     52.85321898	     47.54106623	      0.00000000	      0.00000000
     22.30171429	     -4.18327491	     -4.90184332	     -1.94785918	      0.96566185	      0.92440578	      0.57361157	     15.01342681	      4.91590831	     -7.48535060	     21.99490997	     21.99490997	     13.17373384	     -1.24909550	     -4.37814539	     22.81909035	    -18.01905935	     -1.87340754	     54.76845808	     54.76845808	      8.84731807	    -18.86488032	      8.70844844	     -9.56349146	      7.03954698	     -0.57592883	      7.71430462	    -11.66314396	     -3.94504473	     25.86020797	     46.10773156	      0.00000000	      0.00000000	     15.03568449	     -9.49217152	     -7.28250957	     49.89925313	     47.42161916	      0.00000000	      0.00000000
     22.32357143	     -3.59530694	     -4.88523583	     -1.21787831	      0.96465368	      0.92279851	      0.57608776	     14.98321707	      5.09041980	     -7.08214765	     23.55948946	     23.55948946	     14.07374778	     -3.23388720	     -4.03899865	     24.60382691	    -17.67740893	     -0.73837068	     57.91518402	     57.91518402	      9.85558325	    -19.10473335	     12.27927853	    -10.01087510	      6.84477389	     -0.76244898	     10.79498519	    -11.69148757	     -4.33016689	     26.21307662	     46.16487292	      0.00000000	      0.00000000	     13.33727927	     -9.01532008	     -6.10993770	     44.31458352	     47.22653882	      0.00000000	      0.00000000
